{
  "asset": {
    "version": "2.0",
    "generator": "custom-script"
  },
  "scene": 0,
  "scenes": [
    {
      "name": "AstronautScene",
      "nodes": [
        0
      ]
    }
  ],
  "nodes": [
    {
      "name": "AstronautRoot",
      "children": [
        1,
        2,
        3
      ]
    },
    {
      "name": "Suit",
      "mesh": 0,
      "translation": [
        0,
        0.75,
        0
      ],
      "scale": [
        1,
        1.4,
        0.8
      ]
    },
    {
      "name": "Visor",
      "mesh": 1,
      "translation": [
        0,
        1.1,
        0.35
      ],
      "scale": [
        0.6,
        0.4,
        0.2
      ]
    },
    {
      "name": "Backpack",
      "mesh": 2,
      "translation": [
        0,
        0.9,
        -0.45
      ],
      "scale": [
        0.5,
        0.7,
        0.3
      ]
    }
  ],
  "meshes": [
    {
      "name": "SuitMesh",
      "primitives": [
        {
          "attributes": {
            "POSITION": 0,
            "NORMAL": 1,
            "TEXCOORD_0": 2
          },
          "indices": 3,
          "material": 0
        }
      ]
    },
    {
      "name": "VisorMesh",
      "primitives": [
        {
          "attributes": {
            "POSITION": 0,
            "NORMAL": 1,
            "TEXCOORD_0": 2
          },
          "indices": 3,
          "material": 1
        }
      ]
    },
    {
      "name": "BackpackMesh",
      "primitives": [
        {
          "attributes": {
            "POSITION": 0,
            "NORMAL": 1,
            "TEXCOORD_0": 2
          },
          "indices": 3,
          "material": 2
        }
      ]
    }
  ],
  "materials": [
    {
      "name": "SuitMaterial",
      "pbrMetallicRoughness": {
        "baseColorFactor": [
          0.92,
          0.92,
          0.95,
          1
        ],
        "metallicFactor": 0.2,
        "roughnessFactor": 0.6
      },
      "emissiveFactor": [
        0.02,
        0.02,
        0.02
      ]
    },
    {
      "name": "VisorMaterial",
      "pbrMetallicRoughness": {
        "baseColorFactor": [
          0.1,
          0.2,
          0.4,
          0.85
        ],
        "metallicFactor": 0.8,
        "roughnessFactor": 0.1
      },
      "emissiveFactor": [
        0.02,
        0.05,
        0.1
      ],
      "alphaMode": "BLEND"
    },
    {
      "name": "BackpackMaterial",
      "pbrMetallicRoughness": {
        "baseColorFactor": [
          0.35,
          0.4,
          0.45,
          1
        ],
        "metallicFactor": 0.4,
        "roughnessFactor": 0.7
      },
      "emissiveFactor": [
        0.05,
        0.05,
        0.05
      ]
    }
  ],
  "buffers": [
    {
      "uri": "data:application/octet-stream;base64,",
      "byteLength": 948
    }
  ],
  "bufferViews": [
    {
      "buffer": 0,
      "byteOffset": 0,
      "byteLength": 288,
      "target": 34962
    },
    {
      "buffer": 0,
      "byteOffset": 288,
      "byteLength": 288,
      "target": 34962
    },
    {
      "buffer": 0,
      "byteOffset": 576,
      "byteLength": 192,
      "target": 34962
    },
    {
      "buffer": 0,
      "byteOffset": 768,
      "byteLength": 72,
      "target": 34963
    },
    {
      "buffer": 0,
      "byteOffset": 840,
      "byteLength": 12
    },
    {
      "buffer": 0,
      "byteOffset": 852,
      "byteLength": 48
    },
    {
      "buffer": 0,
      "byteOffset": 900,
      "byteLength": 12
    },
    {
      "buffer": 0,
      "byteOffset": 912,
      "byteLength": 36
    }
  ],
  "accessors": [
    {
      "bufferView": 0,
      "componentType": 5126,
      "count": 24,
      "type": "VEC3",
      "min": [
        -0.5,
        -0.5,
        -0.5
      ],
      "max": [
        0.5,
        0.5,
        0.5
      ]
    },
    {
      "bufferView": 1,
      "componentType": 5126,
      "count": 24,
      "type": "VEC3"
    },
    {
      "bufferView": 2,
      "componentType": 5126,
      "count": 24,
      "type": "VEC2"
    },
    {
      "bufferView": 3,
      "componentType": 5123,
      "count": 36,
      "type": "SCALAR"
    },
    {
      "bufferView": 4,
      "componentType": 5126,
      "count": 3,
      "type": "SCALAR"
    },
    {
      "bufferView": 5,
      "componentType": 5126,
      "count": 3,
      "type": "VEC4"
    },
    {
      "bufferView": 6,
      "componentType": 5126,
      "count": 3,
      "type": "SCALAR"
    },
    {
      "bufferView": 7,
      "componentType": 5126,
      "count": 3,
      "type": "VEC3",
      "min": [
        0,
        0,
        0
      ],
      "max": [
        0,
        1.2,
        0
      ]
    }
  ],
  "animations": [
    {
      "name": "Idle",
      "channels": [
        {
          "sampler": 0,
          "target": {
            "node": 0,
            "path": "rotation"
          }
        }
      ],
      "samplers": [
        {
          "input": 4,
          "interpolation": "LINEAR",
          "output": 5
        }
      ]
    },
    {
      "name": "Jump",
      "channels": [
        {
          "sampler": 0,
          "target": {
            "node": 0,
            "path": "translation"
          }
        }
      ],
      "samplers": [
        {
          "input": 6,
          "interpolation": "LINEAR",
          "output": 7
        }
      ]
    }
  ]
}